<?xml version="1.0" encoding="UTF-8" standalone="no"?>
<svg xmlns="http://www.w3.org/2000/svg" viewBox="0 0 500 250">
  <defs>
    <linearGradient id="gradient" x1="0%" y1="0%" x2="100%" y2="100%">
      <stop offset="0%" style="stop-color:#00BFA5;stop-opacity:1" />
      <stop offset="50%" style="stop-color:#0277BD;stop-opacity:1" />
      <stop offset="100%" style="stop-color:#673AB7;stop-opacity:1" />
    </linearGradient>
  </defs>
  <g fill="url(#gradient)">
    <path d="M103.5 17C47.8 17 2.3 62.5 2.3 118.2c0 19.8 5.8 38.5 15.9 54.1 1.3 2.1 1.8 4.7 1.2 7.1L8.8 219.7c-1.3 5.4 3.6 10.3 9.1 9l40.8-9.8c2.4-0.6 5-0.2 7.2 1.1 11.9 7 25.7 11 40.3 11.4 61.5 2 113.3-44.8 115.4-106.3 2.2-64-49.7-117.9-113.7-108.1C103.8 17 103.6 17 103.5 17zM90 79c4.4-5.4 12-7 18-3.2s8.6 11.6 6.3 18.2c-2.2 6.6-8.7 11-15.8 10.8-7-0.2-13.3-5-15.2-11.8S85.6 84.4 90 79z"/>
    <path d="M154.5 64.4c5.9 1.1 11 3.9 15.6 7.6 4.6 3.7 8.4 8.2 11.6 13.1 6.3 9.8 10 20.7 11.2 31.7 1.2 11 0 22.1-3 32.6-3 10.5-7.7 20.3-13.9 29-6.1 8.6-13.7 15.9-22.4 21.4-8.7 5.5-18.5 9.1-28.8 10.5-10.3 1.4-20.9 0.6-31-2.5-10.1-3.1-19.6-8.4-27.6-15.5"/>
    <path d="M221.7 95.4c3.2-0.5 6.4 0.5 8.9 2.5 2.4 2 4.1 4.8 5.2 7.8 2.1 6 2.5 12.4 2.8 18.8 0.7 13.8 1.2 27.7 1.8 41.5 0.4 10.3 0.9 20.9 5.2 30.4 1.3 2.9 3 5.6 5.4 7.6 2.4 2 5.5 3.1 8.6 3.2 3.1 0.1 6.1-0.9 8.5-2.7 2.4-1.8 4.3-4.3 5.7-7.1 2.8-5.7 3.5-12 4.1-18.3 1.6-17.5 2.1-35 2.7-52.5 0.2-7.4 0.5-14.9 2-22.2 1.5-7.3 4.3-14.3 9.1-20.1 2.4-2.8 5.3-5.3 8.5-7 3.3-1.7 6.9-2.7 10.6-2.6 3.7 0.1 7.3 1.2 10.5 3 3.2 1.9 5.9 4.5 7.9 7.7 4.1 6.2 5.3 13.5 5.7 20.8 0.9 17 0.4 34.2 0.5 51.3 0.1 13.6 0.5 27.4 4.8 40.4 1.3 4.1 3.1 8 5.8 11.3 2.6 3.3 6.1 5.9 10.1 7.1 4 1.2 8.4 0.9 12.2-0.7 3.8-1.7 6.9-4.7 9-8.4 4.3-7.5 4.9-16.2 5.4-24.6 1.1-18.4 1.6-36.8 2.6-55.3 0.6-11.1 1.4-22.4 5.3-32.9 1.9-5.2 4.8-10.1 8.8-14.1 3.9-3.9 9-6.8 14.6-7.4 2.8-0.3 5.7-0.1 8.4 0.6 2.7 0.8 5.3 2.1 7.5 3.8 4.5 3.3 7.6 8.1 9.5 13.3 2 5.2 2.9 10.8 3.7 16.3 1.5 11.2 2.9 22.3 4.3 33.5 1.2 9.1 2.3 18.2 4.6 27.1 2.3 8.9 5.7 17.5 11.1 25.1 2.7 3.8 5.9 7.3 9.5 10.3 3.6 3 7.7 5.6 12 7.5 8.7 3.9 18.3 5.5 27.8 4.8 9.5-0.6 18.7-3.4 27.1-7.6"/>
  </g>
</svg>
